<svg class="css-ze2te4 css-qd6ojx" viewBox="0 0 92.10526315789474 50.569884540044775" xmlns="http://www.w3.org/2000/svg"><g transform="translate(-5.116959064327485, -25.884648373252467) scale(1.023391812865497)" class="css-11gk2ux" fill="#b469ff"><path xmlns="http://www.w3.org/2000/svg" d="M38.481,69.952l-1.83,3.17H63.35l-1.83-3.17H38.481 M63.35,26.878H36.651l1.83,3.17h23.038L63.35,26.878   M40.311,33.218L30.622,50l9.689,16.782h19.378L69.378,50l-9.689-16.782H40.311 M35.736,74.707L21.471,50l14.264-24.707h28.529  L78.529,50L64.265,74.707H35.736" style="fill-rule: evenodd; clip-rule: evenodd;"></path><polyline xmlns="http://www.w3.org/2000/svg" points="77.614,35.736 82.189,27.811 95,50 82.189,72.189 77.614,64.264 85.85,50 77.614,35.736 " style="fill-rule: evenodd; clip-rule: evenodd;"></polyline><polyline xmlns="http://www.w3.org/2000/svg" points="17.811,72.189 5,50 17.811,27.811 22.386,35.736 14.151,50 22.386,64.264 17.811,72.189 " style="fill-rule: evenodd; clip-rule: evenodd;"></polyline></g></svg>